PathFileType	4	(X/Y/Z)	C:\Users\Basilio\Documents\Thesis Gigler\squatting_fais\c3dfiles\054\SJ_pre2\markers_experimental.trc
DataRate	CameraRate	NumFrames	NumMarkers	Units	OrigDataRate	OrigDataStartFrame	OrigNumFrames
200.000000	200.000000	4	61	mm	200.000000	1309	2095
Frame#	Time	FHD			LBHD			RBHD			C7			T10			CLAV			LSHO			LUUPA			LMUPA			LDUPA			LLEP			LMEP			LRAD			LUL			LRFIN			RSHO			RUPA1			RMUPA			RDUPA			RLEP			RMEP			RRAD			RUL			RUFIN			LASI			RASI			USACR			LSACR			RSACR			LTHI1			LTHI2			LTHI3			LTHI4			LLFC			LMFC			LTIB1			LTIB2			LTIB3			LTIB4			LLMAL			LMMAL			LHEE			LMT1			LMT2			LMT5			RTHI			RTHI2			RTHI3			RTHI4			RLFC			RMFC			RTIB1			RTIB2			RTIB3			RTIB4			RLMAL			RMMAL			RHEE			RMT1			RMT2			RMT5			
		X1	Y1	Z1	X2	Y2	Z2	X3	Y3	Z3	X4	Y4	Z4	X5	Y5	Z5	X6	Y6	Z6	X7	Y7	Z7	X8	Y8	Z8	X9	Y9	Z9	X10	Y10	Z10	X11	Y11	Z11	X12	Y12	Z12	X13	Y13	Z13	X14	Y14	Z14	X15	Y15	Z15	X16	Y16	Z16	X17	Y17	Z17	X18	Y18	Z18	X19	Y19	Z19	X20	Y20	Z20	X21	Y21	Z21	X22	Y22	Z22	X23	Y23	Z23	X24	Y24	Z24	X25	Y25	Z25	X26	Y26	Z26	X27	Y27	Z27	X28	Y28	Z28	X29	Y29	Z29	X30	Y30	Z30	X31	Y31	Z31	X32	Y32	Z32	X33	Y33	Z33	X34	Y34	Z34	X35	Y35	Z35	X36	Y36	Z36	X37	Y37	Z37	X38	Y38	Z38	X39	Y39	Z39	X40	Y40	Z40	X41	Y41	Z41	X42	Y42	Z42	X43	Y43	Z43	X44	Y44	Z44	X45	Y45	Z45	X46	Y46	Z46	X47	Y47	Z47	X48	Y48	Z48	X49	Y49	Z49	X50	Y50	Z50	X51	Y51	Z51	X52	Y52	Z52	X53	Y53	Z53	X54	Y54	Z54	X55	Y55	Z55	X56	Y56	Z56	X57	Y57	Z57	X58	Y58	Z58	X59	Y59	Z59	X60	Y60	Z60	X61	Y61	Z61	

1310	6.545	139.4949493408203	1111.015991210938	-878.3035888671877	-24.05120468139649	1077.109497070313	-955.0930175781252	-46.23083114624024	1073.446044921875	-816.816101074219	-98.0168151855469	998.7218017578127	-872.5377197265627	-387.3675231933595	837.3150024414065	-910.768493652344	-43.87757110595704	846.1075439453127	-887.3980102539065	-23.96454048156739	925.6999511718752	-1036.2431640625	-150.9306182861328	928.8177490234377	-1226.125	-157.3754119873047	879.6663818359377	-1237.872192382813	-192.9305572509766	906.034606933594	-1278.184448242188	-242.7152252197266	866.116394042969	-1305.49365234375	-303.0872497558594	920.7488403320315	-1269.305419921875	-429.0602111816407	743.0941772460939	-1157.3828125	-421.0419921875001	681.2081909179689	-1201.077758789063	-388.5247497558595	714.7929687500001	-1109.8330078125	-22.16105079650879	896.8830566406252	-724.5395507812501	-181.2101440429688	882.222595214844	-548.5728759765626	-201.5612335205079	837.7173461914065	-545.8585205078126	-240.3206787109376	868.633239746094	-511.9351806640626	-288.5881042480469	849.379333496094	-498.9703369140626	-329.3598327636719	910.8756103515627	-545.8259887695314	-467.3760681152345	748.6406860351564	-688.7086181640626	-460.3831481933595	685.4178466796876	-641.6545410156251	-414.9196166992189	720.2095336914064	-722.5546875000001	-388.3193359375001	627.6844482421876	-1038.488037109375	-389.8740539550782	620.5009155273439	-783.859802246094	-477.093475341797	783.2710571289065	-914.6895141601565	-504.4348754882814	765.8822631835939	-942.749206542969	-506.3045349121095	765.7805175781251	-885.9039306640627	-438.9160766601564	564.2694091796876	-1184.534912109375	-358.2877502441407	558.7172851562501	-1212.776977539063	-333.9979553222657	597.0327758789064	-1198.68115234375	-326.6190185546876	509.8448181152345	-1227.744873046875	-205.9013671875001	448.2592163085939	-1259.225463867188	-142.2833557128907	430.974334716797	-1138.375122070313	-208.1424255371094	287.8471679687501	-1226.742309570313	-286.2371215820313	273.8451843261719	-1269.018310546875	-249.1840057373047	254.6561584472657	-1251.776733398438	-282.1630859375001	185.488998413086	-1214.215454101563	-402.660125732422	89.3381805419922	-1240.19580078125	-350.5907897949219	98.48706817626956	-1156.679443359375	-464.423553466797	53.24572372436525	-1172.269897460938	-243.9571228027344	53.57832717895509	-1209.856323242188	-250.3067626953126	57.608211517334	-1259.146728515625	-311.9667053222657	37.49848175048829	-1299.42626953125	-389.8439331054689	529.2279663085939	-626.6547851562501	-325.4935913085938	539.8927612304689	-607.6046142578126	-306.3561401367188	566.6423950195314	-614.5231323242189	-271.3894958496094	477.9740600585939	-590.0860595703126	-223.9037475585938	437.6712341308595	-571.6448364257814	-146.5602722167969	436.016815185547	-688.5741577148439	-206.4765777587891	332.4911193847657	-566.0429077148439	-313.2454223632813	304.0731506347657	-563.6247558593751	-274.6057739257813	277.1577453613282	-562.7564086914064	-280.3233032226563	226.7443389892579	-588.5368652343751	-413.0873107910157	93.7590789794922	-597.5410156250001	-356.0967407226563	98.09783935546878	-672.2346801757814	-468.8818664550782	51.28830337524415	-667.2730102539064	-248.0771942138672	50.60588455200197	-614.7236328125001	-261.8253173828126	55.17258834838869	-568.8684692382814	-320.8699645996094	34.28576660156251	-533.5450439453126	
1311	6.55	139.6301879882813	1110.852661132813	-878.3143310546877	-23.93533706665039	1077.01123046875	-955.0727539062502	-46.15719604492188	1073.297485351563	-816.7421875000002	-97.97666168212893	998.5984497070315	-872.3975830078127	-387.3770446777345	837.226501464844	-910.750183105469	-43.84561157226563	845.9237060546877	-887.3564453125002	-23.91868400573731	925.4884033203127	-1036.179565429688	-150.8304290771485	928.697937011719	-1226.094482421875	-157.319320678711	879.582702636719	-1237.8388671875	-192.8808288574219	905.9263305664065	-1278.171264648438	-242.5630035400391	866.018737792969	-1305.470336914063	-303.0653686523438	920.646423339844	-1269.20458984375	-428.9718322753907	743.0831909179689	-1157.376220703125	-421.0306396484376	681.1372070312501	-1201.05224609375	-388.5225219726564	714.7178955078126	-1109.815795898438	-22.12704467773438	896.7583618164065	-724.4454345703126	-181.270980834961	882.1397094726565	-548.5301513671876	-201.6063690185547	837.642028808594	-545.8514404296876	-240.3039093017579	868.5535278320315	-511.8512268066407	-288.4783020019532	849.2365722656252	-498.9479370117189	-329.2940063476563	910.7554321289065	-545.8230590820314	-467.345428466797	748.5658569335939	-688.6651000976564	-460.3533325195314	685.3526000976564	-641.6452636718751	-414.9196166992189	720.2095336914064	-722.5546875000001	-388.6159667968751	627.5162963867189	-1038.300903320313	-389.6435546875001	620.5681762695314	-783.8862304687502	-477.0903625488282	783.2863769531252	-914.6560668945315	-504.4310913085939	765.8395385742189	-942.7281494140627	-506.3201599121095	765.7069702148439	-885.891296386719	-438.8996887207032	564.1971435546876	-1184.521362304688	-357.9389648437501	558.5388183593751	-1212.652954101563	-333.9890441894532	596.9659423828126	-1198.679443359375	-326.7665100097657	509.9081420898439	-1227.6826171875	-205.9105377197266	448.230926513672	-1259.205078125	-142.2299346923828	430.9856872558595	-1138.377807617188	-208.106918334961	287.9045410156251	-1226.729736328125	-286.2535095214844	273.8393859863282	-1269.019653320313	-249.2001495361329	254.6688537597657	-1251.761108398438	-282.1469421386719	185.4473876953125	-1214.2080078125	-402.627166748047	89.3138885498047	-1240.184814453125	-350.5888061523438	98.48633575439456	-1156.680297851563	-464.415740966797	53.23782348632814	-1172.265502929688	-244.0008544921876	53.5656089782715	-1209.819580078125	-250.2861785888672	57.60756683349611	-1259.126708984375	-311.9800720214844	37.46043014526368	-1299.42822265625	-389.793426513672	529.1186523437501	-626.6687622070314	-325.4579467773438	539.8339843750001	-607.6228027343751	-306.3419494628907	566.6223754882814	-614.5106811523439	-271.3064270019532	477.9773559570314	-590.1145019531251	-223.8833312988282	437.646942138672	-571.6672363281251	-146.6042785644532	435.9729614257814	-688.5925292968751	-206.4800567626954	332.4839782714844	-566.0458984375001	-313.2486572265626	304.0624084472657	-563.6333007812501	-274.5833129882813	277.1314086914063	-562.7477416992189	-280.3247680664063	226.7452697753907	-588.5339355468751	-413.0960083007814	93.74485015869142	-597.5411376953126	-356.1321411132813	98.08827209472659	-672.2352294921876	-468.8728942871095	51.28125381469728	-667.2672119140626	-248.0346679687501	50.61931228637697	-614.7267456054689	-261.7640686035157	55.1670379638672	-568.8048706054689	-320.8626708984376	34.2494010925293	-533.5311889648439	
1312	6.555	139.8071441650391	1110.625366210938	-878.330505371094	-23.86540031433106	1076.851196289063	-955.0916137695315	-46.06587600708009	1073.140014648438	-816.7315063476565	-97.84465026855472	998.454528808594	-872.4002685546877	-387.2566833496095	837.1646118164065	-910.7363891601565	-44.0965805053711	845.826354980469	-887.268493652344	-23.83839225769043	925.3424072265627	-1036.142578125	-150.8181304931641	928.5717773437502	-1226.035766601563	-157.1869354248047	879.4538574218752	-1237.764770507813	-192.7899017333985	905.791687011719	-1278.1376953125	-242.5549621582032	865.9426269531252	-1305.440673828125	-302.9995422363282	920.5399169921877	-1269.217407226563	-429.0353088378907	743.0170288085939	-1157.330688476563	-421.020721435547	681.0537109375001	-1201.034057617188	-388.5374145507814	714.6865234375001	-1109.797119140625	-22.13332176208496	896.5822753906252	-724.4555053710939	-181.2761993408203	882.0021972656252	-548.4799194335939	-201.6153564453126	837.5701904296877	-545.7673339843751	-240.3073730468751	868.434753417969	-511.8396911621095	-288.4840087890626	849.1360473632815	-498.9513244628907	-329.1773376464844	910.6405029296877	-545.8107299804689	-467.301971435547	748.5296630859376	-688.6899414062501	-460.3635864257814	685.2657470703126	-641.6397094726564	-415.060516357422	720.0366210937501	-722.6494140625001	-388.2851562500001	627.5714111328126	-1038.495971679688	-389.8956909179689	620.2697143554689	-783.7788085937502	-477.0025024414064	783.1240234375002	-914.6501464843752	-504.3098449707032	765.7324829101564	-942.7210693359377	-506.2821350097657	765.5885620117189	-885.8834228515627	-438.9180603027345	564.1307983398439	-1184.564208984375	-358.2527770996094	558.6154174804689	-1212.75439453125	-334.0043334960938	596.9376220703126	-1198.666137695313	-326.7646179199219	509.9167785644532	-1227.696166992188	-205.881820678711	448.2673950195314	-1259.2373046875	-142.2271575927735	430.9896850585939	-1138.378051757813	-208.1228485107422	287.9306030273438	-1226.737182617188	-286.2736206054688	273.8582763671876	-1269.036376953125	-249.2129669189454	254.6301574707032	-1251.765869140625	-282.2226257324219	185.4473419189453	-1214.167236328125	-402.5958251953126	89.31993865966798	-1240.186279296875	-350.5500793457032	98.491813659668	-1156.650512695313	-464.4193725585939	53.23103713989259	-1172.267822265625	-243.9739532470704	53.55283355712892	-1209.824096679688	-250.2572021484376	57.57662963867189	-1259.134521484375	-312.0409851074219	37.51012039184571	-1299.394409179688	-389.7655639648439	529.0598144531251	-626.6646728515626	-325.4505615234376	539.7911376953126	-607.6521606445314	-306.3009643554688	566.5933837890626	-614.4893188476564	-271.1364135742188	477.9390258789064	-590.1143188476564	-223.8566894531251	437.618621826172	-571.6234741210939	-146.541259765625	435.956756591797	-688.5652465820314	-206.3357238769532	332.4448242187501	-566.0316772460939	-313.2175598144532	304.0452880859376	-563.6052246093751	-274.5853576660157	277.1413574218751	-562.7322998046876	-280.2925415039063	226.7008819580079	-588.5030517578126	-413.0797424316407	93.75304412841798	-597.5610961914064	-356.1002807617188	98.11086273193362	-672.2374877929689	-468.8780517578126	51.28453445434572	-667.2761840820314	-248.0823669433594	50.61450958251955	-614.6928100585939	-261.8153991699219	55.12749481201173	-568.8233642578126	-320.8593139648438	34.23614501953126	-533.5277099609376	
1313	6.56	139.8701934814453	1110.468994140625	-878.2627563476565	-23.7381763458252	1076.645141601563	-955.1251220703127	-45.88272857666016	1072.953857421875	-816.7395019531252	-97.76615905761722	998.3020629882815	-872.348815917969	-387.2698669433595	837.089782714844	-910.6770019531252	-44.07880783081055	845.645690917969	-887.2590332031252	-23.74449729919434	925.1841430664065	-1036.069458007813	-150.7343292236328	928.4583740234377	-1226.012451171875	-157.102523803711	879.3807373046877	-1237.767578125	-192.7104492187501	905.662048339844	-1278.090454101563	-242.5048217773438	865.7739868164065	-1305.391967773438	-302.9677429199219	920.451599121094	-1269.186645507813	-429.0149841308595	742.9645996093751	-1157.364379882813	-420.8959350585939	680.9850463867189	-1201.022827148438	-388.6455688476564	714.5801391601564	-1109.782958984375	-22.09441947937012	896.4041748046877	-724.4353637695314	-181.2700500488282	881.873718261719	-548.4292602539064	-201.5957031250001	837.4856567382815	-545.7556762695314	-240.2138671875001	868.3045043945315	-511.7231445312501	-288.4525451660157	849.0911865234377	-498.9151000976564	-329.0827026367188	910.4925537109377	-545.8345336914064	-467.2884216308595	748.4748535156251	-688.6781616210939	-460.3564758300782	685.2124023437501	-641.6309204101564	-415.0896301269532	719.9752807617189	-722.6828002929689	-388.5952148437501	627.4223022460939	-1038.3037109375	-398.6566162109376	617.8764038085939	-780.7215576171877	-477.0104980468751	783.0463867187502	-914.6389160156252	-505.2641601562501	765.9984130859376	-942.629089355469	-508.5220031738282	766.2131958007814	-885.500671386719	-438.902801513672	564.0885620117189	-1184.56201171875	-358.2752380371094	558.5839233398439	-1212.757934570313	-333.9946899414063	596.8936767578126	-1198.677368164063	-326.7320251464844	509.8489074707032	-1227.725219726563	-205.8849639892579	448.2302551269532	-1259.238647460938	-142.08203125	430.9792480468751	-1138.4013671875	-208.091781616211	287.8677062988282	-1226.72216796875	-286.2181091308594	273.8332519531251	-1269.080932617188	-249.1321258544922	254.7052459716797	-1251.749877929688	-282.1579284667969	185.4498138427735	-1214.207885742188	-402.5950927734376	89.31797790527345	-1240.192260742188	-350.5381469726563	98.4892501831055	-1156.665893554688	-464.3975219726564	53.26314544677736	-1172.299926757813	-244.0162811279297	53.57273864746095	-1209.826538085938	-250.2453002929688	57.59218597412111	-1259.148193359375	-312.0317077636719	37.49640655517579	-1299.402465820313	-389.7251281738282	528.9962158203126	-626.6405029296876	-325.3804931640626	539.7188720703126	-607.6378173828126	-306.2968750000001	566.5560302734376	-614.4898681640626	-271.1768798828126	477.8919677734376	-590.0611572265626	-223.7988586425782	437.6079101562501	-571.5897216796876	-146.4693908691407	435.9233703613282	-688.5033569335939	-206.3364715576172	332.4107055664063	-566.0746459960939	-313.2182922363282	304.0466003417969	-563.6047973632814	-274.5466308593751	277.1182556152344	-562.7416381835939	-280.2696228027344	226.6946258544922	-588.5219726562501	-413.089080810547	93.76263427734376	-597.5395507812501	-356.1170654296876	98.09182739257815	-672.2609252929689	-468.8684692382814	51.26902770996095	-667.3212890625001	-248.0095367431641	50.71267700195314	-614.7337646484376	-261.8199157714844	55.13448333740236	-568.8449707031251	-320.8705444335938	34.28396606445313	-533.5413818359376	
